<?xml version="1.0" encoding="utf-8"?>
<!-- Generator: Adobe Illustrator 19.1.0, SVG Export Plug-In . SVG Version: 6.00 Build 0)  -->
<svg version="1.1" id="new" xmlns:sketch="http://www.bohemiancoding.com/sketch/ns"
	 xmlns="http://www.w3.org/2000/svg" xmlns:xlink="http://www.w3.org/1999/xlink" x="0px" y="0px" width="2000px" height="800px"
	 viewBox="705.5 1257 2000 800" style="enable-background:new 705.5 1257 2000 800;" xml:space="preserve">
<style type="text/css">
	.st0{fill:#FF8200;}
	.st1{fill:#43B02A;}
</style>
<g id="Logo" sketch:type="MSLayerGroup">
	<path id="Carrot_2_" sketch:type="MSShapeGroup" class="st0" d="M1049.0791,1623.22961
		c20.45251,20.55225,37.17395,54.20361,27.60242,74.19507c-25.6001,53.46814-216.59631,147.23291-232.82257,131.00769
		c-16.22528-16.22632,77.61151-207.29358,131.07971-232.89355c19.9942-9.57397,53.65131,7.15454,74.2038,27.61096
		C1049.14246,1623.14978,1049.12109,1623.17664,1049.0791,1623.22961L1049.0791,1623.22961z"/>
	<path id="Leaves_2_" sketch:type="MSShapeGroup" class="st1" d="M1150.26587,1600.65723
		c0.00134-0.00073,0.00195-0.0011,0.00195-0.0011c-3.32568-12.29822-11.802-24.72253-24.45544-26.19434
		c-23.20581-2.69934-59.78845,38.32959-57.1781,48.06848c2.60938,9.73901,54.2887,26.90369,73.59448,13.02869
		c9.95105-7.15161,11.35071-22.59949,8.08215-34.91382L1150.26587,1600.65723L1150.26587,1600.65723z M1078.44092,1486.98267
		c17.24097,4.66492,34.6554,16.54797,36.71802,34.28613c3.78394,32.53552-53.74036,83.82458-67.39429,80.16577
		c-13.65491-3.65881-37.72021-76.11572-18.26733-103.18359c10.0271-13.95105,31.68616-15.91406,48.95093-11.33069
		C1078.44824,1486.92029,1078.4458,1486.94128,1078.44092,1486.98267L1078.44092,1486.98267z"/>
</g>
<g id="Logotype">
	<path class="st1" d="M1592.38135,1679.58325l-17.08374-2.5896c-16.27917-2.40259-25.70288-7.67212-25.70288-17.27368
		c0-11.00781,12.26562-17.84546,30.40112-17.84546c12.82495,0,23.26465,4.80701,33.25781,9.89709l1.98804,1.00916
		c2.30835,1.17102,4.78394,1.76367,7.35742,1.76367c5.93188,0,11.39392-3.22131,14.25574-8.40747l1.39539-2.52197
		c2.21216-4.01147,2.68384-8.63354,1.32227-13.0116c-1.35449-4.36572-4.3479-7.89319-8.42346-9.9364
		c-14.56006-7.2915-30.35144-13.83569-51.1532-13.83569c-43.47534,0-71.48291,20.99207-71.48291,54.78406
		c0,27.73718,19.93311,45.12537,57.65466,50.28479l17.23499,2.24243c18.21204,2.55566,27.06641,7.94482,27.06641,16.47864
		c0,7.88416-4.26245,18.36511-32.47314,18.36511c-15.55139,0-31.34253-3.94751-44.16211-12.06836
		c-2.55737-1.61963-5.51001-2.47559-8.53369-2.47559c-5.62756,0-10.97021,2.98633-13.94238,7.79688l-0.95752,1.55371
		c-2.38501,3.85864-3.10217,8.59265-1.96851,12.98865c1.13208,4.38708,3.91187,8.01416,7.82544,10.2157
		c22.35181,12.5686,48.15051,17.02856,61.73877,17.02856c45.32288,0,73.38208-19.86743,73.38208-54.81982
		C1651.37793,1701.23572,1631.52502,1685.20361,1592.38135,1679.58325z"/>
	<path class="st1" d="M2119.39575,1740.6322c-3.27124-3.65198-7.96606-5.7467-12.87817-5.7467
		c-3.31738,0-6.55664,0.94495-9.37207,2.73364c-9.22266,5.85352-19.33154,8.94849-29.23779,8.94849
		c-27.23352,0-46.99927-21.50635-46.99927-51.13904s19.76575-51.14075,46.99927-51.14075
		c10.45435,0,19.80859,2.84045,28.59692,8.68689c6.80566,4.52405,16.58374,3.36548,22.17554-2.6073l1.45239-1.54492
		c3.8335-4.09155,5.65601-9.63904,5.00464-15.21497c-0.63721-5.47803-3.62012-10.35461-8.17969-13.37646
		c-13.39087-8.87927-29.99219-13.57239-48.01392-13.57239c-52.26733,0-88.77344,36.50439-88.77344,88.7699
		c0,52.26746,36.5061,88.77161,88.77344,88.77161c18.09277,0,34.78687-4.78918,48.27734-13.84814
		c4.50269-3.02734,7.47485-7.86462,8.15112-13.27319c0.67969-5.45312-1.02881-10.92407-4.69141-15.01221L2119.39575,1740.6322z"/>
	<path class="st1" d="M1273.50708,1546.5979c-13.60449,0-24.25964,10.79224-24.25964,24.56934
		c0,13.83032,10.4292,24.25952,24.25964,24.25952c13.77686,0,24.56738-10.65527,24.56738-24.25952
		C1298.07446,1557.39014,1287.28394,1546.5979,1273.50708,1546.5979z"/>
	<path class="st1" d="M1280.85034,1608.09607h-14.31226c-7.01135,0-12.69507,5.68372-12.69507,12.69495v146.39514
		c0,7.01404,5.68604,12.70007,12.69995,12.70007h14.30237c7.01404,0,12.70007-5.68604,12.70007-12.70007v-146.39514
		C1293.54541,1613.77979,1287.86157,1608.09607,1280.85034,1608.09607z"/>
	<path class="st1" d="M1750.68652,1745.80652c-16.05981-0.06226-34.72473-12.64917-34.72473-34.68567v-66.03259h34.84399
		c7.01404,0,12.69995-5.68591,12.69995-12.69995v-11.59192c0-7.01416-5.68591-12.70007-12.69995-12.70007h-34.84399v-38.10803
		c0-7.01416-5.68591-12.70007-12.69995-12.70007h-15.09851c-7.01392,0-12.69995,5.68591-12.69995,12.70007v138.76831
		c0,39.94678,30.31396,75.26929,72.29199,75.26929h0.0144c4.18982,0,8.13733-1.64124,11.11597-4.61987
		c2.97876-2.97876,4.62-6.92627,4.62-11.11584l0.00012-9.78381C1763.50586,1751.45508,1757.73779,1745.83386,1750.68652,1745.80652z
		"/>
	<path class="st1" d="M1403.90088,1606.65869c-50.80676,0-79.13843,40.63354-79.13843,75.40796v85.11951
		c0,7.01404,5.68604,12.70007,12.69995,12.70007h14.47522c7.01404,0,12.70007-5.68604,12.70007-12.70007v-78.73035
		c0-26.35974,15.97168-43.82104,39.26318-43.82104s39.26318,17.4613,39.26318,43.82104v78.73035
		c0,7.01404,5.68604,12.70007,12.69995,12.70007h14.47522c7.01404,0,12.70007-5.68604,12.70007-12.70007v-85.11951
		C1483.03931,1647.29224,1454.70752,1606.65869,1403.90088,1606.65869z"/>
	<path class="st1" d="M2448.93433,1608.42249c-5.50293-1.20312-19.31421-1.76379-26.46167-1.76379
		c-0.64502,0-1.27759,0.02307-1.90137,0.02307c-39.34204,0-75.65771,32.07019-75.65771,76.27283
		c-0.00366,0.03625-0.01221,0.07837-0.01221,0.11084v0.83215v83.28857c0,7.01404,5.68604,12.70007,12.69995,12.70007h14.47534
		c7.01392,0,12.69995-5.68604,12.69995-12.70007v-82.77637c0-24.06458,17.17969-39.75073,38.23267-39.75073
		c3.85474,0.0603,7.9917,0.49329,12.04297,1.29456c1.10352,0.21716,2.22852,0.32739,3.34229,0.32739
		c8.03027,0,14.99023-5.5459,16.87207-13.35693c1.0332-4.28918,1.79321-7.48438,2.50928-10.40076s0.22778-6.22375-1.44507-8.89685
		C2454.6543,1610.94604,2452.02734,1609.09692,2448.93433,1608.42249z"/>
	<path class="st1" d="M2555.1001,1645.08826c7.01416,0,12.7002-5.68591,12.7002-12.69995v-11.59192
		c0-7.01416-5.68604-12.70007-12.7002-12.70007h-34.84375v-38.10803c0-7.01416-5.68604-12.70007-12.7002-12.70007h-15.09839
		c-7.01392,0-12.69995,5.68591-12.69995,12.70007v138.76831c0,39.94678,30.31396,75.26929,72.29199,75.26929h0.0144
		c4.18994,0,8.13745-1.64124,11.11597-4.61987c2.97876-2.97876,4.62012-6.92627,4.62012-11.11584v-9.78381
		c0-7.05127-5.76807-12.67249-12.81934-12.69983c-16.05981-0.06226-34.72461-12.64917-34.72461-34.68567v-66.03259H2555.1001z"/>
	<path class="st1" d="M2278.85254,1620.27966c-0.02271-0.01514-0.04248-0.03357-0.06543-0.04858
		c-13.39062-8.87915-29.99194-13.57239-48.01367-13.57239c-0.31396,0-0.61987,0.01782-0.93262,0.02051
		c-0.31274-0.00269-0.6189-0.02051-0.93262-0.02051c-18.02173,0-34.62305,4.69324-48.01367,13.57239
		c-0.02271,0.01501-0.04248,0.03333-0.06494,0.04834C2156.72095,1635.44995,2142,1662.25549,2142,1695.42859
		c0,34.75085,16.15063,62.51636,42.32861,77.23523c12.20532,7.20447,26.69531,11.5,42.31299,11.51123
		c28.52515,0.02051,45.74805-16.14111,51.16479-23.19629v6.0824c0,7.01404,5.68604,12.70007,12.69995,12.70007h14.47534
		c7.01392,0,12.69995-5.68604,12.69995-12.70007v-71.63269C2317.68164,1662.25562,2302.96094,1635.4502,2278.85254,1620.27966z
		 M2245.79321,1743.90442c-4.6377,1.53442-9.36011,2.42273-14.05493,2.6189c-0.34326,0.01208-0.68774,0.02039-1.03345,0.02551
		c-0.28784,0.00586-0.57642,0.01624-0.86401,0.01685c-0.2876-0.00061-0.57617-0.01099-0.86426-0.01685
		c-0.3457-0.00513-0.69019-0.01343-1.0332-0.02551c-4.69482-0.19617-9.41724-1.08447-14.05493-2.6189
		c-18.71948-6.60986-31.15015-24.98254-31.15015-48.47583c0-27.74255,17.32568-48.36169,41.88354-50.87939
		c0.12939-0.01257,0.25977-0.02258,0.3894-0.0343c0.55444-0.05237,1.11426-0.09167,1.67578-0.12549
		c0.31689-0.01855,0.63428-0.03662,0.95312-0.0498c0.54175-0.02222,1.08667-0.0354,1.63477-0.04028
		c0.18896-0.0022,0.37622-0.0094,0.56592-0.00977c0.1897,0.00037,0.37695,0.00757,0.56592,0.00977
		c0.5481,0.00488,1.09302,0.01807,1.63477,0.04028c0.31885,0.01318,0.63599,0.03125,0.95288,0.0498
		c0.56177,0.03381,1.12134,0.07312,1.67603,0.12549c0.12964,0.01172,0.26001,0.02173,0.3894,0.0343
		c24.55786,2.5177,41.88354,23.13684,41.88354,50.87939C2276.94336,1718.92188,2264.5127,1737.29456,2245.79321,1743.90442z"/>
	<path class="st1" d="M1917.54175,1620.27966c-0.02271-0.01514-0.04248-0.03357-0.06519-0.04858
		c-13.39087-8.87915-29.99219-13.57239-48.01392-13.57239c-0.31372,0-0.61987,0.01782-0.93262,0.02051
		c-0.31274-0.00269-0.6189-0.02051-0.93262-0.02051c-18.02173,0-34.62305,4.69324-48.01367,13.57239
		c-0.02271,0.01501-0.04248,0.03333-0.06494,0.04834c-24.10864,15.17053-38.82959,41.97607-38.82959,75.14917
		c0,34.75085,16.15063,62.51636,42.32861,77.23523c12.20544,7.20447,26.69531,11.5,42.31299,11.51123
		c28.52515,0.02051,45.74817-16.14111,51.16479-23.19629v6.0824c0,7.01404,5.68604,12.70007,12.70007,12.70007h14.47522
		c7.01404,0,12.69995-5.68604,12.69995-12.70007v-71.63269C1956.37085,1662.25562,1941.65015,1635.4502,1917.54175,1620.27966z
		 M1884.48242,1743.90442c-4.6377,1.53442-9.36011,2.42273-14.05493,2.6189c-0.34302,0.01208-0.68774,0.02039-1.03345,0.02551
		c-0.28784,0.00586-0.57617,0.01624-0.86401,0.01685c-0.2876-0.00061-0.57617-0.01099-0.86401-0.01685
		c-0.3457-0.00513-0.69043-0.01343-1.03345-0.02551c-4.69482-0.19617-9.41724-1.08447-14.05493-2.6189
		c-18.71924-6.60986-31.15015-24.98254-31.15015-48.47583c0-27.74255,17.32568-48.36169,41.88354-50.87939
		c0.12939-0.01257,0.25977-0.02258,0.3894-0.0343c0.55444-0.05237,1.11426-0.09167,1.67603-0.12549
		c0.31689-0.01855,0.63403-0.03662,0.95288-0.0498c0.54175-0.02222,1.08667-0.0354,1.63477-0.04028
		c0.18896-0.0022,0.37622-0.0094,0.56592-0.00977c0.1897,0.00037,0.37695,0.00757,0.56592,0.00977
		c0.5481,0.00488,1.09302,0.01807,1.63477,0.04028c0.31885,0.01318,0.63599,0.03125,0.95288,0.0498
		c0.56177,0.03381,1.12158,0.07312,1.67603,0.12549c0.12964,0.01172,0.26001,0.02173,0.3894,0.0343
		c24.55786,2.5177,41.88354,23.13684,41.88354,50.87939C1915.63257,1718.92188,1903.2019,1737.29456,1884.48242,1743.90442z"/>
</g>
</svg>
